# xmcd CD database file
#
# Track frame offsets:
#	150
#	21632
#	49550
#
# Disc length: 1254 seconds
#
# Revision: 0
# Processed by: cddbd v1.5.1PL0 Copyright (c) Steve Scherf et al.
# Submitted via: CDex 1.51
#
DISCID=2004e403
DTITLE=Gerard - Evidence Of True Love
DYEAR=1997
DGENRE=Progressive Rock
TTITLE0=Dirty Hunters
TTITLE1=Delirium
TTITLE2=Evidence Of True Love
EXTD=YEAR: 1997
EXTT0=
EXTT1=
EXTT2=
PLAYORDER=
